<?xml version="1.0" encoding="utf-8"?>
<!-- Generator: Adobe Illustrator 16.0.0, SVG Export Plug-In . SVG Version: 6.00 Build 0)  -->
<svg version="1.2" baseProfile="tiny" id="Layer_1" xmlns="http://www.w3.org/2000/svg" xmlns:xlink="http://www.w3.org/1999/xlink"
	 x="0px" y="0px" width="20px" height="20px" viewBox="0 0 20 20" xml:space="preserve">
<g>
	<path fill="#FFFFFF" d="M1.104,3.521l8.962,8.61l8.872-8.607c0.033-0.032,0.075-0.046,0.111-0.072
		c-0.417-0.326-0.935-0.529-1.506-0.529H2.457c-0.562,0-1.073,0.195-1.487,0.513C1.016,3.465,1.064,3.481,1.104,3.521z"/>
	<path fill="#FFFFFF" d="M19.585,15.366c0.087,0.041,0.166,0.098,0.235,0.166c0.114-0.281,0.18-0.589,0.18-0.911V5.379
		c0-0.147-0.019-0.289-0.043-0.43l-5.448,5.286C16.706,12.539,19.072,14.95,19.585,15.366z"/>
	<path fill="#FFFFFF" d="M13.265,11.443l-2.592,2.515c-0.168,0.163-0.386,0.244-0.604,0.244c-0.217,0-0.432-0.08-0.6-0.242
		L6.805,11.4l-5.45,5.405c0.332,0.168,0.704,0.272,1.103,0.272h15.087c0.396,0,0.764-0.103,1.095-0.27
		C17.924,16.309,16.556,14.901,13.265,11.443z"/>
	<path fill="#FFFFFF" d="M0.047,4.908C0.018,5.061,0,5.217,0,5.379v9.242c0,0.322,0.066,0.628,0.178,0.91l5.377-5.332L0.047,4.908z"
		/>
</g>
</svg>
