<?xml version="1.0" encoding="utf-8"?>
<!-- Generator: Adobe Illustrator 16.0.0, SVG Export Plug-In . SVG Version: 6.00 Build 0)  -->
<svg version="1.2" baseProfile="tiny" id="Layer_1" xmlns="http://www.w3.org/2000/svg" xmlns:xlink="http://www.w3.org/1999/xlink"
	 x="0px" y="0px" width="20px" height="20px" viewBox="0 0 20 20" xml:space="preserve">
<path fill="#FFFFFF" d="M2.568,0h14.865C18.846,0,20,1.155,20,2.568v14.867C20,18.847,18.846,20,17.434,20H2.568
	C1.155,20,0,18.847,0,17.435V2.568C0,1.155,1.155,0,2.568,0z M14.569,2.221c-0.495,0-0.9,0.407-0.9,0.902v2.154
	c0,0.496,0.405,0.901,0.9,0.901h2.261c0.495,0,0.9-0.405,0.9-0.901V3.124c0-0.496-0.405-0.902-0.9-0.902H14.569z M17.739,8.458
	h-1.76c0.167,0.545,0.257,1.119,0.257,1.717c0,3.326-2.784,6.024-6.218,6.024c-3.433,0-6.217-2.698-6.217-6.024
	c0-0.598,0.092-1.172,0.258-1.717H2.224v8.45c0,0.438,0.357,0.793,0.794,0.793h13.927c0.438,0,0.795-0.355,0.795-0.793V8.458z
	 M10.019,6.065c-2.217,0-4.016,1.742-4.016,3.893c0,2.148,1.799,3.892,4.016,3.892c2.219,0,4.018-1.743,4.018-3.892
	C14.036,7.807,12.237,6.065,10.019,6.065z"/>
</svg>
