<?xml version="1.0" encoding="utf-8"?>
<!-- Generator: Adobe Illustrator 16.0.0, SVG Export Plug-In . SVG Version: 6.00 Build 0)  -->
<!DOCTYPE svg [
	<!ENTITY ns_flows "http://ns.adobe.com/Flows/1.0/">
	<!ENTITY ns_extend "http://ns.adobe.com/Extensibility/1.0/">
	<!ENTITY ns_ai "http://ns.adobe.com/AdobeIllustrator/10.0/">
	<!ENTITY ns_graphs "http://ns.adobe.com/Graphs/1.0/">
]>
<svg version="1.2" baseProfile="tiny" id="Layer_1" xmlns:x="&ns_extend;" xmlns:i="&ns_ai;" xmlns:graph="&ns_graphs;"
	 xmlns="http://www.w3.org/2000/svg" xmlns:xlink="http://www.w3.org/1999/xlink" xmlns:a="http://ns.adobe.com/AdobeSVGViewerExtensions/3.0/"
	 x="0px" y="0px" width="20px" height="20px" viewBox="0 0 20 20" xml:space="preserve">
<path fill="#FFFFFF" d="M20,3.797c-0.736,0.326-1.527,0.547-2.356,0.646c0.847-0.508,1.499-1.312,1.804-2.27
	c-0.791,0.47-1.67,0.812-2.604,0.996c-0.749-0.798-1.815-1.296-2.995-1.296c-2.267,0-4.104,1.837-4.104,4.103
	c0,0.322,0.036,0.635,0.106,0.935c-3.411-0.17-6.433-1.804-8.458-4.288C1.04,3.231,0.837,3.936,0.837,4.688
	c0,1.423,0.725,2.68,1.825,3.415C1.99,8.082,1.357,7.896,0.804,7.589v0.052c0,1.988,1.414,3.646,3.291,4.023
	c-0.344,0.094-0.708,0.145-1.081,0.145c-0.264,0-0.522-0.025-0.772-0.074c0.522,1.631,2.037,2.816,3.833,2.85
	c-1.403,1.101-3.172,1.758-5.096,1.758c-0.331,0-0.657-0.021-0.978-0.059c1.815,1.164,3.972,1.844,6.291,1.844
	c7.547,0,11.674-6.252,11.674-11.675c0-0.177-0.004-0.354-0.012-0.531C18.754,5.343,19.449,4.621,20,3.797z"/>
</svg>
